<?xml version="1.0" encoding="utf-8"?>
<!-- Generator: Adobe Illustrator 24.1.2, SVG Export Plug-In . SVG Version: 6.00 Build 0)  -->
<svg version="1.1" id="Layer_1" xmlns="http://www.w3.org/2000/svg" xmlns:xlink="http://www.w3.org/1999/xlink" x="0px" y="0px"
	 viewBox="0 0 134 162.9" style="enable-background:new 0 0 134 162.9;" xml:space="preserve">
<style type="text/css">
	.st0{fill:#FFFFFF;}
</style>
<g id="lvvMz9_1_">
	<g>
		<path class="st0" d="M49.7,94.6c0-10.1-0.5-19.9,0.1-29.7c0.6-9.5,2.2-19,3.3-28.5c0.2-1.6,0.9-1.9,2.2-1.8c10.6,0,21.2,0,31.8,0
			c4.4,0,7.1,2.7,7.1,7.1c0,16.6,0,33.2,0,49.9c0,1,0.2,1.9-1.4,2.1C78.6,95.5,64.3,95.6,49.7,94.6z"/>
		<path class="st0" d="M76.5,7.8c1-1.3,1.9-2.3,3-3.7c0,5.6,0,10.8,0,15.6c-3.6-3.4-7.4-7-11.4-10.9C69.7,9,71,9.1,72.3,9.3
			c0.2-0.2,0.3-0.4,0.5-0.6c-1.6-1.6-3-3.4-4.8-4.5c-0.8-0.5-2.9-0.1-3.7,0.7c-1.9,1.9-3.8,4.1-5.1,6.5c-4.5,8.2-6.4,17.3-8,26.4
			c-3.5,19.2-4.2,38.6-3.2,58c0.8,16,2.6,31.9,7.8,47.2c1.4,4.1,3.6,8,5.6,11.9c0.6,1.1,1.7,2,2.7,2.8c2.2,1.8,4.1,1.7,6.3-0.1
			c3.2-2.6,4.9-6.1,6.3-9.8c1-2.7,1.7-5.5,2.4-8.2c0.4-1.3,0.8-2.5,2.4-2.2c1.5,0.3,1.7,1.5,1.4,2.9c-1.5,6.7-3.5,13.2-8.2,18.4
			c-5.1,5.7-10.7,5.6-15.5-0.4c-4.8-5.9-7-13-9-20.2c-3.8-13.9-5.3-28.2-6.1-42.6c-1-19.5-0.2-39,3.3-58.2
			c1.3-6.9,3.3-13.7,5.5-20.4c1.3-4,3.6-7.8,5.5-11.6c0.3-0.7,0.9-1.3,1.4-1.8c4.7-5,9.9-4.7,14.1,0.7C74.7,5.3,75.5,6.5,76.5,7.8z"
			/>
		<path class="st0" d="M49.9,102.2c15,1,29.5,0.8,44.4-1.1c0,2.7,0,5.2,0,7.8c0,1.7,0.1,3.4,0,5.1c-0.2,3.4-2.9,6.1-6.4,6.1
			c-11.4,0.1-22.9,0-34.3,0c-0.6,0-1.5-0.6-1.6-1.1C51.2,113.6,50.6,108.1,49.9,102.2z"/>
		<path class="st0" d="M123.6,75.7c0.3,1.8,0.5,3.1,0.8,4.9c-4.2-3.7-8.1-7.1-12.5-10.9c5.7-0.3,10.9-0.6,16.5-1
			c-1.3,1.3-2.4,2.3-3.5,3.3c1.8,1,3.6,1.7,5.2,2.8c4.7,3,5.2,7.5,1.4,11.5c-3.5,3.8-8.1,5.8-12.9,7.4c-12.4,4.4-25.4,6.1-38.4,6.8
			c-8.6,0.4-17.1,0.1-25.7,0.1c-1.4,0-2.8-0.2-4.4-0.3c-0.1-1.2-0.2-2.4-0.3-3.6c1.2,0,2.4-0.1,3.5,0c19.8,1,39.4,0.3,58.6-4.9
			c5.4-1.4,10.7-3.1,15.2-6.6c0.5-0.4,1-0.7,1.4-1.2c2.5-2.7,2.3-4.4-0.9-6.3C126.5,77.1,125.3,76.6,123.6,75.7z"/>
		<path class="st0" d="M55.2,28.7c0.2-3.9,0.2-3.9,3.7-3.9c10.9,0,21.8-0.1,32.7-0.1c5.5,0,9.2,3.7,9.2,9.1c0,18.4,0,36.8,0,55.2
			c0,3.9,0.5,3.5-3.9,3.9c0-0.9,0-1.8,0-2.7c0-18.5,0-36.9,0-55.4c0-4.3-1.8-6.1-6-6.1c-11.1,0-22.1,0-33.2,0
			C56.9,28.7,56,28.7,55.2,28.7z"/>
		<path class="st0" d="M42.1,95.7c0,1.2,0,2.3,0,3.8c-2.9-0.4-5.8-0.7-8.6-1.2c-7.9-1.4-15.7-3.2-23.1-6.6c-3.4-1.6-6.6-3.4-8.8-6.6
			c-2.4-3.6-2.2-6.9,0.7-10.1c3.9-4.3,9-6.2,14.4-7.3c3.2-0.6,6.4-0.7,9.6-1c1.3-0.1,2.3,0.4,2.4,1.9c0,1.5-1,1.9-2.3,1.9
			c-5.1,0.1-10,0.7-14.7,2.8c-2.1,1-4.1,2.2-5.9,3.7c-2.7,2.3-2.8,5-0.1,7.3c1.8,1.5,3.9,2.8,6,3.8c9.2,4.3,19.1,6,29,7.4
			C41.2,95.6,41.5,95.7,42.1,95.7z"/>
		<path class="st0" d="M54,130.7c1.2,0,2.1,0,3,0c11.1,0,22.1,0,33.2,0c5,0,6.7-1.7,6.7-6.6c0-7,0-13.9,0-20.9c0-0.8,0-1.5,0-2.3
			c1.3-0.2,2.5-0.4,3.9-0.7c0,4.4,0,8.7,0,13c0,4.3,0,8.5,0,12.8c-0.1,4.8-3.7,8.5-8.5,8.6c-11.8,0.1-23.7,0-35.5,0.1
			C53.9,134.6,54.9,132.4,54,130.7z"/>
		<path class="st0" d="M40.3,93.6c-1.4-0.2-2.4-0.4-3.8-0.6c0-0.9,0-1.7,0-2.5c0-16.5,0-32.9,0-49.4c0-2.5,0-5.1,0-7.6
			c0.1-4.6,2.9-7.7,7.4-8.3c1.3-0.2,2.5-0.3,4.1-0.4c-0.5,1.5-0.8,2.6-1.2,3.8c-1.3,0.2-2.9-0.1-3.8,0.5c-1.4,1-2.6,2.3-2.6,4.5
			c0.1,19.2,0,38.5,0,57.7C40.5,92,40.4,92.7,40.3,93.6z"/>
		<path class="st0" d="M47,134.3c-5.2,0.8-9.7-2.3-10.4-7.2c-0.1-0.9-0.1-1.8-0.1-2.8c0-7.8,0-15.6,0-23.6c1.3,0.2,2.4,0.4,3.7,0.6
			c0.1,1,0.2,2,0.2,3c0,6.9,0,13.7,0,20.6c0,3,1.1,5.1,3.6,5.4C46.7,130.7,46.8,132.4,47,134.3z"/>
		<path class="st0" d="M45.4,36.8c-0.7,4.8-1.4,9.7-2,14.5C43.7,46.4,41.4,41.2,45.4,36.8z"/>
	</g>
</g>
</svg>
