<?xml version="1.0" encoding="utf-8"?>
<!-- Generator: Adobe Illustrator 24.1.2, SVG Export Plug-In . SVG Version: 6.00 Build 0)  -->
<svg version="1.1" id="Layer_2" xmlns="http://www.w3.org/2000/svg" xmlns:xlink="http://www.w3.org/1999/xlink" x="0px" y="0px"
	 viewBox="0 0 173 113" style="enable-background:new 0 0 173 113;" xml:space="preserve">
<style type="text/css">
	.st0{fill:none;stroke:#FFFFFF;stroke-width:3;stroke-miterlimit:10;}
	.st1{fill:#FFFFFF;}
</style>
<path class="st0" d="M105.5,51.5h-38c-3.3,0-6-2.7-6-6v-38c0-3.3,2.7-6,6-6h38c3.3,0,6,2.7,6,6v38C111.5,48.8,108.8,51.5,105.5,51.5
	z"/>
<path class="st0" d="M105.5,111.5h-38c-3.3,0-6-2.7-6-6v-38c0-3.3,2.7-6,6-6h38c3.3,0,6,2.7,6,6v38
	C111.5,108.8,108.8,111.5,105.5,111.5z"/>
<path class="st0" d="M45.5,111.5h-38c-3.3,0-6-2.7-6-6v-38c0-3.3,2.7-6,6-6h38c3.3,0,6,2.7,6,6v38C51.5,108.8,48.8,111.5,45.5,111.5
	z"/>
<path class="st0" d="M165.5,111.5h-38c-3.3,0-6-2.7-6-6v-38c0-3.3,2.7-6,6-6h38c3.3,0,6,2.7,6,6v38
	C171.5,108.8,168.8,111.5,165.5,111.5z"/>
<g>
	<path class="st1" d="M78.5,26.8l-1.9-1.9l10.5-10.5l10.5,10.5l-1.9,1.9l-7.1-7.2v19.8h-3V19.6L78.5,26.8z"/>
</g>
<g>
	<path class="st1" d="M94.8,86.6l1.9,1.9L86.1,99L75.6,88.5l1.9-1.9l7.1,7.2V74h3v19.8L94.8,86.6z"/>
</g>
<g>
	<path class="st1" d="M147.6,77.1l1.9-1.9L160,85.7l-10.5,10.5l-1.9-1.9l7.2-7.1H135v-3h19.8L147.6,77.1z"/>
</g>
<g>
	<path class="st1" d="M27.5,94.1l-1.9,1.9L15.1,85.4l10.5-10.5l1.9,1.9l-7.2,7.1h19.8v3H20.3L27.5,94.1z"/>
</g>
</svg>
