<?xml version="1.0" encoding="utf-8"?>
<!-- Generator: Adobe Illustrator 24.1.2, SVG Export Plug-In . SVG Version: 6.00 Build 0)  -->
<svg version="1.1" xmlns="http://www.w3.org/2000/svg" xmlns:xlink="http://www.w3.org/1999/xlink" x="0px" y="0px"
	 viewBox="0 0 259.1 368.6" style="enable-background:new 0 0 259.1 368.6;" xml:space="preserve">
<style type="text/css">
	.st0{fill:#FFFFFF;}
</style>
<g id="Layer_1">
	<g>
		<path class="st0" d="M156.5,40L156.5,40c28.2,0,53.9,11.5,72.5,30.1c18.6,18.6,30.1,44.2,30.1,72.4v123.5
			c0,28.2-11.5,53.9-30.1,72.4c-18.6,18.6-44.2,30.1-72.4,30.1h0c-28.2,0-53.9-11.5-72.4-30.1c-18.6-18.6-30.1-44.2-30.1-72.4V142.5
			c0-28.2,11.5-53.9,30.1-72.4S128.3,40,156.5,40L156.5,40z M156.5,52.5L156.5,52.5c-24.8,0-47.3,10.1-63.6,26.5
			s-26.5,38.8-26.5,63.6v123.5c0,24.8,10.1,47.3,26.5,63.6c16.3,16.3,38.8,26.5,63.6,26.5h0c24.8,0,47.3-10.1,63.6-26.5
			c16.3-16.3,26.5-38.8,26.5-63.6V142.5c0-24.8-10.1-47.3-26.5-63.6S181.3,52.5,156.5,52.5z"/>
		<path class="st0" d="M156.5,40L156.5,40c28.2,0,53.9,11.5,72.5,30.1c18.6,18.6,30.1,44.2,30.1,72.4v29.7c0,3.4-2.8,6.2-6.2,6.2
			H60.2c-3.4,0-6.2-2.8-6.2-6.2v-29.7c0-28.2,11.5-53.9,30.1-72.4S128.3,40,156.5,40L156.5,40z M156.5,52.5L156.5,52.5
			c-24.8,0-47.3,10.1-63.6,26.5s-26.5,38.8-26.5,63.6V166h180.2v-23.4c0-24.8-10.1-47.3-26.5-63.6S181.3,52.5,156.5,52.5z"/>
		<path class="st0" d="M133.1,155.1V63.4c0-6.4,2.6-12.3,6.9-16.5c4.2-4.2,10.1-6.9,16.5-6.9c6.4,0,12.3,2.6,16.5,6.9
			c4.2,4.2,6.9,10.1,6.9,16.5v91.7c0,6.4-2.6,12.3-6.9,16.5c-4.2,4.2-10.1,6.9-16.5,6.9c-6.4,0-12.3-2.6-16.5-6.9
			C135.7,167.4,133.1,161.5,133.1,155.1L133.1,155.1z M145.6,63.4v91.7c0,3,1.2,5.7,3.2,7.7c2,2,4.7,3.2,7.7,3.2
			c3,0,5.7-1.2,7.7-3.2c2-2,3.2-4.7,3.2-7.7V63.4c0-3-1.2-5.7-3.2-7.7c-2-2-4.7-3.2-7.7-3.2c-3,0-5.7,1.2-7.7,3.2
			C146.8,57.7,145.6,60.4,145.6,63.4z"/>
		<path class="st0" d="M153,48c1.2,3.2,4.8,4.8,8.1,3.6c3.2-1.2,4.8-4.8,3.6-8.1c-14.9-38.4-48.9-30.6-82.9-22.9
			C52.5,27.3,23.2,34,12.1,4.1c-1.2-3.2-4.8-4.9-8-3.7c-3.2,1.2-4.9,4.8-3.7,8c14.9,40.2,49.5,32.3,84,24.4
			C113.2,26.2,141.9,19.7,153,48z"/>
	</g>
</g>
<g id="Master_Layer_2">
</g>
</svg>
