<?xml version="1.0" encoding="utf-8"?>
<!-- Generator: Adobe Illustrator 24.1.2, SVG Export Plug-In . SVG Version: 6.00 Build 0)  -->
<svg version="1.1" xmlns="http://www.w3.org/2000/svg" xmlns:xlink="http://www.w3.org/1999/xlink" x="0px" y="0px"
	 viewBox="0 0 103.2 110.4" style="enable-background:new 0 0 103.2 110.4;" xml:space="preserve">
<style type="text/css">
	.st0{display:none;}
	.st1{display:inline;}
	.st2{fill:#FFFFFF;}
</style>
<g id="Layer_2" class="st0">
	<rect x="-4.6" y="-6" class="st1" width="123.8" height="134.6"/>
</g>
<g id="Layer_3">
	<path class="st2" d="M87.4,33.7H15.9c-1.3,0-2.4-1.1-2.4-2.4v0c0-1.3,1.1-2.4,2.4-2.4h71.5c1.3,0,2.4,1.1,2.4,2.4v0
		C89.8,32.6,88.7,33.7,87.4,33.7z"/>
	<path class="st2" d="M87.4,57.6H15.9c-1.3,0-2.4-1.1-2.4-2.4v0c0-1.3,1.1-2.4,2.4-2.4h71.5c1.3,0,2.4,1.1,2.4,2.4v0
		C89.8,56.6,88.7,57.6,87.4,57.6z"/>
	<path class="st2" d="M87.4,81.6H15.9c-1.3,0-2.4-1.1-2.4-2.4v0c0-1.3,1.1-2.4,2.4-2.4h71.5c1.3,0,2.4,1.1,2.4,2.4v0
		C89.8,80.5,88.7,81.6,87.4,81.6z"/>
</g>
</svg>
