<svg width="98" height="57" viewBox="0 0 98 57" fill="none" xmlns="http://www.w3.org/2000/svg">
<g clip-path="url(#clip0_1:101)">
<path d="M50.7998 33.5L57.8998 26.4L68.9998 37.8V0.899994H79.1998V37.9L90.3998 26.4L97.5998 33.5L74.1998 56.9L50.7998 33.5Z" fill="black"/>
<path d="M12.3058 34.5724V55.7H0V0H20.5096C34.1827 0 44.6654 3.3612 44.6654 17.2862C44.6654 25.4491 40.5635 30.2509 34.1827 32.6517L47.4 55.7H32.8154L21.4212 34.5724H12.3058V34.5724ZM12.3058 23.5285H20.5096C26.4346 23.5285 30.9923 22.5681 30.9923 17.2862C30.9923 12.0043 26.4346 11.044 20.5096 11.044H12.3058V23.5285Z" fill="black"/>
</g>
<defs>
<clipPath id="clip0_1:101">
<rect width="97.7" height="56.9" fill="white"/>
</clipPath>
</defs>
</svg>
