<svg width="98" height="89" viewBox="0 0 98 89" fill="none" xmlns="http://www.w3.org/2000/svg">
<g clip-path="url(#clip0_1:15)">
<path d="M50.7998 33.5L57.8998 26.4L68.9998 37.8V0.899994H79.1998V37.9L90.3998 26.4L97.5998 33.5L74.1998 56.9L50.7998 33.5Z" fill="black"/>
<path d="M27.2623 66.4C27.2623 67 27.7786 67.4 28.6048 67.6L30.257 67.9C32.2191 68.3 34.5942 68.9 34.5942 71.3C34.5942 73.7 32.1158 75.1 29.5342 75.1C26.4362 75.1 24.4741 73.6 24.061 71.1H26.8492C27.159 72.3 28.1917 72.9 29.6374 72.9C30.5668 72.9 31.7028 72.6 31.7028 71.6C31.7028 70.8 30.7734 70.5 29.4309 70.2L28.0884 69.9C26.1264 69.5 24.3708 68.6 24.3708 66.5C24.3708 64.1 26.9525 63 29.3276 63C31.7028 63 33.8714 64 34.2844 66.5H31.4962C31.1864 65.6 30.3603 65.1 29.1211 65.1C28.0884 65.2 27.2623 65.6 27.2623 66.4Z" fill="black"/>
<path d="M90.4615 70C90.4615 71.7 90.8746 72.6 92.8367 72.6C94.7987 72.6 95.2118 71.5 95.2118 69.8V63H98V69.5C98 73.1 96.5543 74.8 92.8367 74.8C89.2223 74.8 87.6733 73.5 87.6733 69.6V63H90.4615V70V70Z" fill="black"/>
<path d="M73.2158 69C73.2158 65.4 75.6942 63 79.4118 63C83.1294 63 85.6078 65.4 85.6078 69C85.6078 72.6 83.0262 75 79.4118 75C75.7975 75 73.2158 72.7 73.2158 69ZM82.6131 69C82.6131 66.5 81.1674 65.3 79.4118 65.3C77.6563 65.3 76.2106 66.6 76.2106 69C76.2106 71.5 77.6563 72.7 79.4118 72.7C81.1674 72.7 82.6131 71.5 82.6131 69Z" fill="black"/>
<path d="M8.88119 80.2C8.67465 79.4 7.74525 78.6 6.29952 78.6C4.54398 78.6 3.20152 79.8 3.20152 82.3C3.20152 84.7 4.44072 86.1 6.29952 86.1C7.64198 86.1 8.98445 85.6 8.98445 84.1V83.9H6.09298V81.7H11.7727V88.2H9.60405L9.50079 86.9C8.67465 87.9 7.53872 88.4 5.78318 88.4C2.27212 88.4 0.103516 86.1 0.103516 82.4C0.103516 78.7 2.58192 76.5 6.19625 76.5C8.88118 76.5 11.0498 77.8 11.5661 80.3H8.88119V80.2Z" fill="black"/>
<path d="M20.3439 76.6L24.8876 88.2H21.7896L21.0668 86.1H16.4198L15.6969 88.2H12.7021L17.2459 76.6H20.3439ZM20.3439 83.9L18.7949 79.5L17.2459 83.9H20.3439Z" fill="black"/>
<path d="M34.4911 85.7V88.1H25.9199V76.6H28.7081V85.8H34.4911V85.7Z" fill="black"/>
<path d="M44.0946 85.7V88.1H35.5234V76.6H38.3116V85.8H44.0946V85.7Z" fill="black"/>
<path d="M54.4217 76.6V79H48.0192V81H54.0086V83.4H48.0192V85.7H54.4217V88.1H45.231V76.6H54.4217Z" fill="black"/>
<path d="M21.9959 63V65.4H15.5934V67.4H21.5828V69.8H15.5934V72.1H21.9959V74.5H12.8052V63H21.9959Z" fill="black"/>
<path d="M45.8504 63V65.4H39.4479V67.4H45.4373V69.8H39.4479V72.1H45.8504V74.5H36.6597V63H45.8504Z" fill="black"/>
<path d="M57.1063 63V65.4H50.7037V67.4H56.6932V69.8H50.7037V72.1H57.1063V74.5H47.9155V63H57.1063Z" fill="black"/>
<path d="M58.965 83.8V88.2H56.1768V76.6H60.8238C63.9218 76.6 66.2969 77.3 66.2969 80.2C66.2969 81.9 65.3675 82.9 63.9218 83.4L66.9165 88.2H63.612L61.0303 83.8H58.965V83.8ZM58.965 81.5H60.8238C62.1662 81.5 63.1989 81.3 63.1989 80.2C63.1989 79.1 62.1662 78.9 60.8238 78.9H58.965V81.5Z" fill="black"/>
<path d="M2.7882 70.2V74.6H0V63H4.647C7.745 63 10.1201 63.7 10.1201 66.6C10.1201 68.3 9.19074 69.3 7.745 69.8L10.7397 74.6H7.4352L4.85354 70.2H2.7882V70.2ZM2.7882 67.9H4.647C5.98947 67.9 7.02214 67.7 7.02214 66.6C7.02214 65.5 5.98947 65.3 4.647 65.3H2.7882V67.9Z" fill="black"/>
<path d="M72.1833 81L74.8683 76.6H78.1728L73.5258 83.7V88.2H70.7376V83.7L66.1938 76.6H69.4984L72.1833 81Z" fill="black"/>
<path d="M65.1609 67.4L67.8458 63H71.1503L66.5033 70.1V74.6H63.7151V70.1L59.1714 63H62.4759L65.1609 67.4Z" fill="black"/>
<path d="M12.3058 34.5724V55.7H0V0H20.5096C34.1827 0 44.6654 3.3612 44.6654 17.2862C44.6654 25.4491 40.5635 30.2509 34.1827 32.6517L47.4 55.7H32.8154L21.4212 34.5724H12.3058V34.5724ZM12.3058 23.5285H20.5096C26.4346 23.5285 30.9923 22.5681 30.9923 17.2862C30.9923 12.0043 26.4346 11.044 20.5096 11.044H12.3058V23.5285Z" fill="black"/>
</g>
<defs>
<clipPath id="clip0_1:15">
<rect width="97.7" height="88.3" fill="white"/>
</clipPath>
</defs>
</svg>
